<svg width="145" height="71" viewBox="0 0 145 71" fill="none" xmlns="http://www.w3.org/2000/svg">
<path d="M49.1484 25.8203L47.5859 4.80469C47.2474 8.34635 46.6224 11.6536 45.7109 14.7266C44.7995 17.7865 43.7643 20.1562 42.6055 21.8359C41.4466 23.5026 40.2617 24.6745 39.0508 25.3516C37.8398 26.0286 36.6419 26.3672 35.457 26.3672C34.7409 26.3672 34.1875 26.2174 33.7969 25.918C33.4193 25.6315 33.2305 25.2799 33.2305 24.8633C33.2305 24.5117 33.3672 24.2057 33.6406 23.9453C33.9271 23.6849 34.2852 23.5547 34.7148 23.5547C35.0273 23.5547 35.4766 23.6263 36.0625 23.7695C36.5964 23.9128 37.0391 23.9844 37.3906 23.9844C38.0026 23.9844 38.6406 23.7565 39.3047 23.3008C40.3073 22.6237 41.2969 21.4128 42.2734 19.668C43.263 17.9102 44.1419 15.4688 44.9102 12.3438C45.6914 9.20573 46.1797 6.14583 46.375 3.16406C43.4193 3.16406 41.0169 3.89974 39.168 5.37109C37.6966 6.54297 36.9609 7.85156 36.9609 9.29688C36.9609 9.9349 37.3125 10.7031 38.0156 11.6016C38.3932 12.0833 38.582 12.474 38.582 12.7734C38.582 13.112 38.4714 13.3919 38.25 13.6133C38.0417 13.8346 37.7878 13.9453 37.4883 13.9453C36.9805 13.9453 36.5312 13.6589 36.1406 13.0859C35.6068 12.3177 35.3398 11.4062 35.3398 10.3516C35.3398 8.86719 35.8346 7.44792 36.8242 6.09375C37.8268 4.72656 39.207 3.69141 40.9648 2.98828C42.7357 2.27214 44.806 1.90755 47.1758 1.89453C48.4518 1.89453 49.474 1.77734 50.2422 1.54297C50.2031 2.71484 50.1836 3.34635 50.1836 3.4375C50.1836 3.55469 50.2031 3.82161 50.2422 4.23828L51.3945 19.082C54.5326 13.6003 57.599 9.08854 60.5938 5.54688C62.7161 3.03385 64.5651 1.33464 66.1406 0.449219C65.2422 2.92318 64.2786 6.1849 63.25 10.2344L60.8672 19.6094C60.737 20.1302 60.5612 20.8919 60.3398 21.8945L59.8711 23.9844C60.8607 24.2188 61.7656 24.3359 62.5859 24.3359C63.25 24.3359 63.9596 24.2578 64.7148 24.1016L64.4609 25.2344C63.7969 25.3516 63.2826 25.4102 62.918 25.4102C62.3841 25.4102 61.6159 25.3516 60.6133 25.2344C59.793 25.1302 59.0638 25.0781 58.4258 25.0781C57.7487 25.0781 56.9805 25.2083 56.1211 25.4688C56.8372 23.5938 57.5859 21.0742 58.3672 17.9102L59.8711 11.9336C60.5091 9.35547 61.0625 7.58464 61.5312 6.62109C60.4896 7.80599 58.8815 9.98047 56.707 13.1445C54.9622 15.6966 53.0091 18.9258 50.8477 22.832L49.1484 25.8203ZM81.0234 8.24219L82.3125 7.96875L80.8477 12.9102C80.2617 14.8763 79.7083 17.1419 79.1875 19.707C78.901 21.1003 78.7578 21.9987 78.7578 22.4023C78.7578 22.806 78.9206 23.0078 79.2461 23.0078C79.4544 23.0078 79.7865 22.8711 80.2422 22.5977C81.0495 22.1159 81.8242 21.5169 82.5664 20.8008L83.1914 21.5625C81.707 22.9167 80.7565 23.737 80.3398 24.0234C79.5065 24.5964 78.7122 25.0195 77.957 25.293C77.4622 25.4753 76.9805 25.5664 76.5117 25.5664C76.1732 25.5664 75.9193 25.4883 75.75 25.332C75.5807 25.1758 75.4961 24.9479 75.4961 24.6484C75.4961 24.4531 75.5482 24.1862 75.6523 23.8477L76.4336 21.1914C75.3138 22.5326 73.9792 23.6849 72.4297 24.6484C71.4792 25.2474 70.6068 25.5469 69.8125 25.5469C69.0573 25.5469 68.4779 25.2799 68.0742 24.7461C67.5273 24.0299 67.2539 23.0924 67.2539 21.9336C67.2539 20.5534 67.6185 19.0169 68.3477 17.3242C69.0898 15.6315 70.0794 14.0951 71.3164 12.7148C72.5534 11.3346 73.8555 10.319 75.2227 9.66797C76.2773 9.17318 77.6315 8.92578 79.2852 8.92578C79.7018 8.92578 80.125 8.95182 80.5547 9.00391L81.0234 8.24219ZM78.6016 11.2305C77.8984 11.0872 77.306 11.0156 76.8242 11.0156C75.6523 11.0156 74.6302 11.3411 73.7578 11.9922C72.8854 12.6302 72.0716 13.7891 71.3164 15.4688C70.5742 17.1354 70.2031 18.8021 70.2031 20.4688C70.2031 21.3542 70.3529 21.9922 70.6523 22.3828C70.9518 22.7734 71.3424 22.9688 71.8242 22.9688C72.7227 22.9688 73.6862 22.487 74.7148 21.5234C75.7435 20.5469 76.4987 19.1471 76.9805 17.3242L78.6016 11.2305ZM95.2227 20.7617L95.6328 21.8945C92.5339 24.3294 89.9167 25.5469 87.7812 25.5469C86.6484 25.5469 85.8216 25.1432 85.3008 24.3359C84.793 23.5286 84.5391 22.5065 84.5391 21.2695C84.5391 19.2122 85.0859 17.0964 86.1797 14.9219C87.2734 12.7474 88.6016 11.0807 90.1641 9.92188C91.388 9.02344 92.7682 8.57422 94.3047 8.57422C95.2682 8.57422 95.9974 8.75651 96.4922 9.12109C96.987 9.48568 97.2344 9.92839 97.2344 10.4492C97.2344 10.8529 97.1042 11.1849 96.8438 11.4453C96.5833 11.6927 96.2188 11.8164 95.75 11.8164C95.2943 11.8164 94.7083 11.6081 93.9922 11.1914C93.25 10.7487 92.6315 10.5273 92.1367 10.5273C91.4987 10.5273 90.8607 10.8203 90.2227 11.4062C89.5977 11.9792 88.9987 13.099 88.4258 14.7656C87.8529 16.4323 87.5664 18.1055 87.5664 19.7852C87.5664 21.0221 87.8073 21.9792 88.2891 22.6562C88.6406 23.1771 89.1354 23.4375 89.7734 23.4375C91.2969 23.4375 93.1133 22.5456 95.2227 20.7617ZM108.816 20.7617L109.227 21.8945C106.128 24.3294 103.51 25.5469 101.375 25.5469C100.242 25.5469 99.4154 25.1432 98.8945 24.3359C98.3867 23.5286 98.1328 22.5065 98.1328 21.2695C98.1328 19.2122 98.6797 17.0964 99.7734 14.9219C100.867 12.7474 102.195 11.0807 103.758 9.92188C104.982 9.02344 106.362 8.57422 107.898 8.57422C108.862 8.57422 109.591 8.75651 110.086 9.12109C110.581 9.48568 110.828 9.92839 110.828 10.4492C110.828 10.8529 110.698 11.1849 110.438 11.4453C110.177 11.6927 109.812 11.8164 109.344 11.8164C108.888 11.8164 108.302 11.6081 107.586 11.1914C106.844 10.7487 106.225 10.5273 105.73 10.5273C105.092 10.5273 104.454 10.8203 103.816 11.4062C103.191 11.9792 102.592 13.099 102.02 14.7656C101.447 16.4323 101.16 18.1055 101.16 19.7852C101.16 21.0221 101.401 21.9792 101.883 22.6562C102.234 23.1771 102.729 23.4375 103.367 23.4375C104.891 23.4375 106.707 22.5456 108.816 20.7617Z" fill="#E2342D"/>
<path d="M23.0938 51.2695H22.0586C22.1628 50.6055 22.2148 50.0781 22.2148 49.6875C22.2148 49.1667 21.9935 48.8281 21.5508 48.6719C21.1211 48.5026 19.4805 48.418 16.6289 48.418L13.7773 48.4375L11.6094 57.0703H15.6523C16.9284 57.0703 17.7096 56.9792 17.9961 56.7969C18.2956 56.6016 18.5104 56.1263 18.6406 55.3711H19.7539C19.3372 56.9466 18.9661 58.6784 18.6406 60.5664H17.6445C17.7096 59.9544 17.7422 59.4792 17.7422 59.1406C17.7422 58.9974 17.651 58.8216 17.4688 58.6133C17.3776 58.5091 17.2083 58.4375 16.9609 58.3984C16.6094 58.3333 16.0625 58.3008 15.3203 58.3008H11.3164C10.1576 62.7279 8.95312 66.1979 7.70312 68.7109C8.91406 68.3333 9.98828 68.1445 10.9258 68.1445C12.4883 68.1445 14.4023 68.3919 16.668 68.8867C17.8659 69.1602 18.6797 69.2969 19.1094 69.2969C19.6823 69.2969 20.1445 69.1536 20.4961 68.8672C20.8477 68.5807 21.0234 68.2552 21.0234 67.8906C21.0234 67.6823 20.9388 67.3438 20.7695 66.875C20.6654 66.5495 20.6133 66.2435 20.6133 65.957C20.6133 65.6576 20.7305 65.3906 20.9648 65.1562C21.2122 64.9219 21.5052 64.8047 21.8438 64.8047C22.2474 64.8047 22.5794 64.9609 22.8398 65.2734C23.1133 65.5859 23.25 66.0026 23.25 66.5234C23.25 67.6302 22.7617 68.6003 21.7852 69.4336C20.8216 70.2669 19.5456 70.6836 17.957 70.6836C17.1237 70.6836 16.069 70.612 14.793 70.4688C11.9935 70.1562 9.85807 70 8.38672 70C6.45964 70 4.20703 70.1562 1.62891 70.4688L1.94141 69.3945C3.47786 68.9648 4.38281 68.6523 4.65625 68.457C4.92969 68.2487 5.15755 67.9492 5.33984 67.5586C5.96484 66.3216 6.77214 63.8411 7.76172 60.1172C8.76432 56.3932 9.77995 52.4609 10.8086 48.3203C9.24609 48.3203 7.76823 48.6914 6.375 49.4336C4.98177 50.1758 3.89453 51.1458 3.11328 52.3438C2.33203 53.5286 1.94141 54.7786 1.94141 56.0938C1.94141 56.6536 1.99349 57.1419 2.09766 57.5586C2.21484 57.9753 2.46875 58.5612 2.85938 59.3164C3.10677 59.7721 3.23047 60.1432 3.23047 60.4297C3.23047 60.7161 3.10677 60.9701 2.85938 61.1914C2.625 61.4128 2.33203 61.5234 1.98047 61.5234C1.47266 61.5234 1.06901 61.2695 0.769531 60.7617C0.326823 60.0195 0.105469 59.0104 0.105469 57.7344C0.105469 55 1.14062 52.5456 3.21094 50.3711C5.28125 48.1966 8.29557 47.1094 12.2539 47.1094H18.9531C21.2708 47.1094 22.9831 46.9596 24.0898 46.6602C23.569 48.8216 23.237 50.3581 23.0938 51.2695ZM34.2461 53.5547C35.4049 53.5547 36.2969 53.7826 36.9219 54.2383C37.5599 54.681 37.8789 55.1953 37.8789 55.7812C37.8789 56.1328 37.7422 56.4388 37.4688 56.6992C37.2083 56.9596 36.8893 57.0898 36.5117 57.0898C36.2643 57.0898 36.0495 57.0378 35.8672 56.9336C35.6849 56.8164 35.4245 56.5365 35.0859 56.0938C34.4479 55.2474 33.8164 54.8242 33.1914 54.8242C32.6576 54.8242 32.1823 55.0326 31.7656 55.4492C31.362 55.8529 31.1602 56.3607 31.1602 56.9727C31.1602 57.5065 31.2904 58.0273 31.5508 58.5352C31.8112 59.0299 32.4688 59.8372 33.5234 60.957C34.9688 62.4935 35.6914 63.9518 35.6914 65.332C35.6914 66.7122 35.1055 67.9232 33.9336 68.9648C32.7617 69.9935 31.2513 70.5078 29.4023 70.5078C27.8529 70.5078 26.7005 70.1953 25.9453 69.5703C25.1901 68.9323 24.8125 68.151 24.8125 67.2266C24.8125 66.7708 24.9557 66.3932 25.2422 66.0938C25.5286 65.7943 25.8802 65.6445 26.2969 65.6445C26.6615 65.6445 26.974 65.7682 27.2344 66.0156C27.4948 66.25 27.625 66.5299 27.625 66.8555C27.625 66.9857 27.612 67.1549 27.5859 67.3633C27.5729 67.5326 27.5664 67.6758 27.5664 67.793C27.5664 68.2227 27.7487 68.5872 28.1133 68.8867C28.4648 69.1862 28.9466 69.3359 29.5586 69.3359C30.2617 69.3359 30.8802 69.2188 31.4141 68.9844C31.9479 68.737 32.3646 68.3724 32.6641 67.8906C32.9635 67.3958 33.1133 66.9076 33.1133 66.4258C33.1133 65.957 32.9701 65.4883 32.6836 65.0195C32.4102 64.5508 31.7852 63.776 30.8086 62.6953C29.4544 61.1849 28.7773 59.7331 28.7773 58.3398C28.7773 57.0638 29.2917 55.9505 30.3203 55C31.349 54.0365 32.6576 53.5547 34.2461 53.5547ZM47.0586 53.5547C48.2174 53.5547 49.1094 53.7826 49.7344 54.2383C50.3724 54.681 50.6914 55.1953 50.6914 55.7812C50.6914 56.1328 50.5547 56.4388 50.2812 56.6992C50.0208 56.9596 49.7018 57.0898 49.3242 57.0898C49.0768 57.0898 48.862 57.0378 48.6797 56.9336C48.4974 56.8164 48.237 56.5365 47.8984 56.0938C47.2604 55.2474 46.6289 54.8242 46.0039 54.8242C45.4701 54.8242 44.9948 55.0326 44.5781 55.4492C44.1745 55.8529 43.9727 56.3607 43.9727 56.9727C43.9727 57.5065 44.1029 58.0273 44.3633 58.5352C44.6237 59.0299 45.2812 59.8372 46.3359 60.957C47.7812 62.4935 48.5039 63.9518 48.5039 65.332C48.5039 66.7122 47.918 67.9232 46.7461 68.9648C45.5742 69.9935 44.0638 70.5078 42.2148 70.5078C40.6654 70.5078 39.513 70.1953 38.7578 69.5703C38.0026 68.9323 37.625 68.151 37.625 67.2266C37.625 66.7708 37.7682 66.3932 38.0547 66.0938C38.3411 65.7943 38.6927 65.6445 39.1094 65.6445C39.474 65.6445 39.7865 65.7682 40.0469 66.0156C40.3073 66.25 40.4375 66.5299 40.4375 66.8555C40.4375 66.9857 40.4245 67.1549 40.3984 67.3633C40.3854 67.5326 40.3789 67.6758 40.3789 67.793C40.3789 68.2227 40.5612 68.5872 40.9258 68.8867C41.2773 69.1862 41.7591 69.3359 42.3711 69.3359C43.0742 69.3359 43.6927 69.2188 44.2266 68.9844C44.7604 68.737 45.1771 68.3724 45.4766 67.8906C45.776 67.3958 45.9258 66.9076 45.9258 66.4258C45.9258 65.957 45.7826 65.4883 45.4961 65.0195C45.2227 64.5508 44.5977 63.776 43.6211 62.6953C42.2669 61.1849 41.5898 59.7331 41.5898 58.3398C41.5898 57.0638 42.1042 55.9505 43.1328 55C44.1615 54.0365 45.4701 53.5547 47.0586 53.5547ZM61.5312 65.0977L62.1758 65.957C58.9857 68.9909 56.2513 70.5078 53.9727 70.5078C53.0482 70.5078 52.3385 70.1953 51.8438 69.5703C51.362 68.9453 51.1211 67.9427 51.1211 66.5625C51.1211 63.776 51.9674 61.0026 53.6602 58.2422C55.5612 55.1042 57.8333 53.5352 60.4766 53.5352C61.401 53.5352 62.1042 53.7695 62.5859 54.2383C63.0807 54.694 63.3281 55.3255 63.3281 56.1328C63.3281 56.9792 63.0352 57.8125 62.4492 58.6328C61.8633 59.4531 60.8151 60.306 59.3047 61.1914C58.5495 61.6211 56.9349 62.3958 54.4609 63.5156C54.3438 64.2188 54.2852 64.8893 54.2852 65.5273C54.2852 66.4518 54.4284 67.0964 54.7148 67.4609C55.0143 67.8255 55.444 68.0078 56.0039 68.0078C56.5378 68.0078 57.1237 67.8581 57.7617 67.5586C58.6211 67.1549 59.8776 66.3346 61.5312 65.0977ZM54.6953 62.2656C56.7917 61.3281 58.3672 60.319 59.4219 59.2383C60.138 58.4831 60.4961 57.7344 60.4961 56.9922C60.4961 56.4323 60.3464 55.9896 60.0469 55.6641C59.7604 55.3255 59.3828 55.1562 58.9141 55.1562C58.4323 55.1562 57.9635 55.3385 57.5078 55.7031C56.8958 56.1849 56.3815 56.9141 55.9648 57.8906C55.3659 59.3229 54.9427 60.7812 54.6953 62.2656ZM65.4766 58.1445L64.8125 57.4609C66.4792 55.8724 67.8073 54.8177 68.7969 54.2969C69.7865 53.776 70.6328 53.5156 71.3359 53.5156C71.6094 53.5156 71.8242 53.5742 71.9805 53.6914C72.1367 53.8086 72.2148 53.9453 72.2148 54.1016C72.2148 54.2188 72.1823 54.4271 72.1172 54.7266L71.2383 58.6523C72.5664 57.181 74.2331 55.8073 76.2383 54.5312C77.306 53.8672 78.1849 53.5352 78.875 53.5352C79.3828 53.5352 79.7799 53.6979 80.0664 54.0234C80.3529 54.349 80.4961 54.8177 80.4961 55.4297C80.4961 55.8333 80.4375 56.2891 80.3203 56.7969C80.112 57.6432 79.5651 59.4857 78.6797 62.3242C77.8464 64.9805 77.4297 66.7448 77.4297 67.6172C77.4297 67.8776 77.4688 68.0729 77.5469 68.2031C77.625 68.3333 77.7357 68.3984 77.8789 68.3984C78.2565 68.3984 78.849 68.0339 79.6562 67.3047C80.2292 66.7839 80.8021 66.3021 81.375 65.8594L81.8633 66.5625C80.6654 67.8906 79.4219 68.9583 78.1328 69.7656C77.3125 70.2865 76.6354 70.5469 76.1016 70.5469C75.6068 70.5469 75.2227 70.3646 74.9492 70C74.6758 69.6484 74.5391 69.069 74.5391 68.2617C74.5391 67.1029 75.2617 64.2188 76.707 59.6094C77.1497 57.9688 77.3711 57.0117 77.3711 56.7383C77.3711 56.3346 77.1302 56.1328 76.6484 56.1328C76.1276 56.1328 75.457 56.4062 74.6367 56.9531C73.4128 57.7604 72.3906 58.7109 71.5703 59.8047C71.0495 60.5078 70.6133 61.6276 70.2617 63.1641L68.6797 69.9805H65.7695C66.3164 68.0273 66.7917 66.1589 67.1953 64.375L68.9336 56.9531C68.9987 56.6536 69.0312 56.4388 69.0312 56.3086C69.0312 55.957 68.901 55.7812 68.6406 55.7812C68.4323 55.7812 68.1328 55.918 67.7422 56.1914C66.9349 56.7253 66.1797 57.3763 65.4766 58.1445ZM88.7578 50.5664L91.8633 49.375L90.457 54.8438H94.5L94.1875 56.2305H90.1445L88.4258 62.7734C87.8919 64.7396 87.625 66.1068 87.625 66.875C87.625 67.2266 87.6966 67.4805 87.8398 67.6367C87.9961 67.793 88.2044 67.8711 88.4648 67.8711C88.8685 67.8711 89.487 67.6302 90.3203 67.1484C91.4141 66.5104 92.4557 65.7878 93.4453 64.9805L94.1875 65.8789C91.3359 68.0273 89.4284 69.3424 88.4648 69.8242C87.5013 70.306 86.7266 70.5469 86.1406 70.5469C85.6589 70.5469 85.2747 70.3711 84.9883 70.0195C84.7148 69.668 84.5781 69.0951 84.5781 68.3008C84.5781 67.3633 84.8255 65.931 85.3203 64.0039L87.332 56.2305H84.168L84.5195 54.8438H87.6641L88.7578 50.5664ZM104.422 45.1758C104.826 45.1758 105.158 45.3125 105.418 45.5859C105.678 45.8464 105.809 46.1849 105.809 46.6016C105.809 47.1745 105.607 47.6823 105.203 48.125C104.812 48.5547 104.37 48.7695 103.875 48.7695C103.484 48.7695 103.159 48.6328 102.898 48.3594C102.638 48.0859 102.508 47.7279 102.508 47.2852C102.508 46.6992 102.697 46.2044 103.074 45.8008C103.452 45.3841 103.901 45.1758 104.422 45.1758ZM96.7266 58.1055L95.8672 57.4414C97.1693 56.0091 98.3542 54.9935 99.4219 54.3945C100.503 53.7826 101.421 53.4766 102.176 53.4766C102.592 53.4766 102.911 53.5677 103.133 53.75C103.354 53.9323 103.465 54.1797 103.465 54.4922C103.465 54.8698 103.042 56.4714 102.195 59.2969C100.815 63.9193 100.125 66.7057 100.125 67.6562C100.125 67.8385 100.171 67.9948 100.262 68.125C100.353 68.2422 100.451 68.3008 100.555 68.3008C100.971 68.3008 102.039 67.4935 103.758 65.8789L104.52 66.6211C102.736 68.3008 101.434 69.375 100.613 69.8438C99.793 70.3125 99.1224 70.5469 98.6016 70.5469C98.1458 70.5469 97.7812 70.4036 97.5078 70.1172C97.2474 69.8307 97.1172 69.4336 97.1172 68.9258C97.1172 67.2982 98.0938 63.3203 100.047 56.9922C100.138 56.6927 100.184 56.4258 100.184 56.1914C100.184 55.931 100.066 55.8008 99.832 55.8008C99.5716 55.8008 99.2721 55.9049 98.9336 56.1133C98.6081 56.3216 97.8724 56.9857 96.7266 58.1055ZM119.031 53.2422L120.32 52.9688L118.855 57.9102C118.27 59.8763 117.716 62.1419 117.195 64.707C116.909 66.1003 116.766 66.9987 116.766 67.4023C116.766 67.806 116.928 68.0078 117.254 68.0078C117.462 68.0078 117.794 67.8711 118.25 67.5977C119.057 67.1159 119.832 66.5169 120.574 65.8008L121.199 66.5625C119.715 67.9167 118.764 68.737 118.348 69.0234C117.514 69.5964 116.72 70.0195 115.965 70.293C115.47 70.4753 114.988 70.5664 114.52 70.5664C114.181 70.5664 113.927 70.4883 113.758 70.332C113.589 70.1758 113.504 69.9479 113.504 69.6484C113.504 69.4531 113.556 69.1862 113.66 68.8477L114.441 66.1914C113.322 67.5326 111.987 68.6849 110.438 69.6484C109.487 70.2474 108.615 70.5469 107.82 70.5469C107.065 70.5469 106.486 70.2799 106.082 69.7461C105.535 69.0299 105.262 68.0924 105.262 66.9336C105.262 65.5534 105.626 64.0169 106.355 62.3242C107.098 60.6315 108.087 59.0951 109.324 57.7148C110.561 56.3346 111.863 55.319 113.23 54.668C114.285 54.1732 115.639 53.9258 117.293 53.9258C117.71 53.9258 118.133 53.9518 118.562 54.0039L119.031 53.2422ZM116.609 56.2305C115.906 56.0872 115.314 56.0156 114.832 56.0156C113.66 56.0156 112.638 56.3411 111.766 56.9922C110.893 57.6302 110.079 58.7891 109.324 60.4688C108.582 62.1354 108.211 63.8021 108.211 65.4688C108.211 66.3542 108.361 66.9922 108.66 67.3828C108.96 67.7734 109.35 67.9688 109.832 67.9688C110.73 67.9688 111.694 67.487 112.723 66.5234C113.751 65.5469 114.507 64.1471 114.988 62.3242L116.609 56.2305ZM130.633 65.293L131.297 65.9961C130.281 67.1419 129.077 68.1901 127.684 69.1406C126.303 70.0781 125.164 70.5469 124.266 70.5469C123.862 70.5469 123.53 70.3906 123.27 70.0781C123.009 69.7786 122.879 69.362 122.879 68.8281C122.879 67.7865 123.283 65.625 124.09 62.3438L126.199 53.7695C126.967 50.6706 127.612 48.5938 128.133 47.5391C128.94 45.9375 130.079 44.694 131.551 43.8086C133.035 42.9232 134.598 42.4805 136.238 42.4805C136.798 42.4805 137.234 42.6172 137.547 42.8906C137.872 43.151 138.035 43.4701 138.035 43.8477C138.035 44.2643 137.879 44.6094 137.566 44.8828C137.254 45.1432 136.798 45.2734 136.199 45.2734C135.809 45.2734 135.255 45.2083 134.539 45.0781C133.914 44.974 133.335 44.9219 132.801 44.9219C132.267 44.9219 131.863 45.0326 131.59 45.2539C131.212 45.5664 130.867 46.224 130.555 47.2266C130.255 48.2292 129.76 50.2083 129.07 53.1641L127.137 61.3477C126.173 65.4492 125.691 67.5911 125.691 67.7734C125.691 68.1901 125.841 68.3984 126.141 68.3984C126.427 68.3984 126.844 68.2292 127.391 67.8906C128.471 67.2135 129.552 66.3477 130.633 65.293ZM140.691 53.5547C141.85 53.5547 142.742 53.7826 143.367 54.2383C144.005 54.681 144.324 55.1953 144.324 55.7812C144.324 56.1328 144.188 56.4388 143.914 56.6992C143.654 56.9596 143.335 57.0898 142.957 57.0898C142.71 57.0898 142.495 57.0378 142.312 56.9336C142.13 56.8164 141.87 56.5365 141.531 56.0938C140.893 55.2474 140.262 54.8242 139.637 54.8242C139.103 54.8242 138.628 55.0326 138.211 55.4492C137.807 55.8529 137.605 56.3607 137.605 56.9727C137.605 57.5065 137.736 58.0273 137.996 58.5352C138.257 59.0299 138.914 59.8372 139.969 60.957C141.414 62.4935 142.137 63.9518 142.137 65.332C142.137 66.7122 141.551 67.9232 140.379 68.9648C139.207 69.9935 137.697 70.5078 135.848 70.5078C134.298 70.5078 133.146 70.1953 132.391 69.5703C131.635 68.9323 131.258 68.151 131.258 67.2266C131.258 66.7708 131.401 66.3932 131.688 66.0938C131.974 65.7943 132.326 65.6445 132.742 65.6445C133.107 65.6445 133.419 65.7682 133.68 66.0156C133.94 66.25 134.07 66.5299 134.07 66.8555C134.07 66.9857 134.057 67.1549 134.031 67.3633C134.018 67.5326 134.012 67.6758 134.012 67.793C134.012 68.2227 134.194 68.5872 134.559 68.8867C134.91 69.1862 135.392 69.3359 136.004 69.3359C136.707 69.3359 137.326 69.2188 137.859 68.9844C138.393 68.737 138.81 68.3724 139.109 67.8906C139.409 67.3958 139.559 66.9076 139.559 66.4258C139.559 65.957 139.415 65.4883 139.129 65.0195C138.855 64.5508 138.23 63.776 137.254 62.6953C135.9 61.1849 135.223 59.7331 135.223 58.3398C135.223 57.0638 135.737 55.9505 136.766 55C137.794 54.0365 139.103 53.5547 140.691 53.5547Z" fill="#004197"/>
</svg>
